<svg width="249" height="48" viewBox="0 0 249 48" fill="none" xmlns="http://www.w3.org/2000/svg">
<path d="M22.4708 0V28.999L17.2135 23.4875V13.8115L8.73075 22.7045L24.9423 39.6999V48L0.813477 22.7045L22.4708 0Z" fill="#70FF91"/>
<path d="M27.4138 0V28.999L32.6711 23.4875V13.8115L41.1539 22.7045L24.9423 39.6999V48L49.0712 22.7045L27.4138 0Z" fill="#70FF91"/>
<path d="M62.1295 38.5L69.5114 9.21283H75.9707L83.3928 38.5H78.2575L76.6527 31.3989H68.8695L67.2648 38.5H62.1295ZM69.7923 27.3067H75.73L73.9647 19.4433C73.6705 18.1327 73.4164 16.9559 73.2024 15.9128C72.9885 14.8429 72.8414 14.0673 72.7611 13.5858C72.6809 14.0673 72.5338 14.8429 72.3198 15.9128C72.1326 16.9559 71.8785 18.1193 71.5575 19.4032L69.7923 27.3067ZM84.2597 38.5V16.4343H89.1543V20.6469H90.5183L89.1543 21.8103C89.1543 19.9916 89.6758 18.574 90.7189 17.5577C91.7888 16.5413 93.2465 16.0331 95.092 16.0331C97.2584 16.0331 98.9835 16.7553 100.267 18.1996C101.578 19.6439 102.233 21.583 102.233 24.0169V38.5H97.2183V24.5384C97.2183 23.2011 96.8706 22.1714 96.1752 21.4493C95.4798 20.7271 94.5035 20.366 93.2465 20.366C92.0161 20.366 91.0399 20.7405 90.3177 21.4894C89.6223 22.2383 89.2746 23.3081 89.2746 24.6989V38.5H84.2597ZM113.772 38.9012C111.9 38.9012 110.255 38.5535 108.837 37.8581C107.446 37.1359 106.363 36.133 105.588 34.8491C104.812 33.5386 104.424 32.0007 104.424 30.2354V24.6989C104.424 22.9069 104.812 21.369 105.588 20.0852C106.363 18.8014 107.446 17.8118 108.837 17.1164C110.255 16.3942 111.9 16.0331 113.772 16.0331C116.554 16.0331 118.773 16.7553 120.432 18.1996C122.09 19.6171 122.959 21.5562 123.04 24.0169H118.025C117.944 22.8668 117.53 21.9842 116.781 21.369C116.059 20.7271 115.056 20.4061 113.772 20.4061C112.435 20.4061 111.378 20.7806 110.602 21.5295C109.827 22.2516 109.439 23.2947 109.439 24.6588V30.2354C109.439 31.5995 109.827 32.6559 110.602 33.4048C111.378 34.1537 112.435 34.5282 113.772 34.5282C115.056 34.5282 116.059 34.2206 116.781 33.6054C117.53 32.9635 117.944 32.0675 118.025 30.9174H123.04C122.959 33.3781 122.09 35.3306 120.432 36.7749C118.773 38.1924 116.554 38.9012 113.772 38.9012ZM125.15 38.5V9.21283H130.165V16.4343L130.045 20.6469H131.409L130.045 21.8103C130.045 19.9916 130.566 18.574 131.609 17.5577C132.679 16.5413 134.137 16.0331 135.982 16.0331C138.149 16.0331 139.874 16.7553 141.158 18.1996C142.468 19.6439 143.124 21.583 143.124 24.0169V38.5H138.109V24.5384C138.109 23.2011 137.761 22.1714 137.066 21.4493C136.37 20.7271 135.394 20.366 134.137 20.366C132.907 20.366 131.93 20.7405 131.208 21.4894C130.513 22.2383 130.165 23.3081 130.165 24.6989V38.5H125.15ZM154.542 38.8611C152.67 38.8611 151.038 38.5134 149.647 37.818C148.283 37.0958 147.214 36.0928 146.438 34.809C145.689 33.4984 145.315 31.9605 145.315 30.1953V24.739C145.315 22.9738 145.689 21.4493 146.438 20.1654C147.214 18.8549 148.283 17.8519 149.647 17.1565C151.038 16.4343 152.67 16.0733 154.542 16.0733C156.441 16.0733 158.073 16.4343 159.437 17.1565C160.801 17.8519 161.857 18.8549 162.606 20.1654C163.382 21.4493 163.769 22.9604 163.769 24.6989V30.1953C163.769 31.9605 163.382 33.4984 162.606 34.809C161.857 36.0928 160.801 37.0958 159.437 37.818C158.073 38.5134 156.441 38.8611 154.542 38.8611ZM154.542 34.4881C155.879 34.4881 156.909 34.127 157.631 33.4048C158.38 32.6559 158.755 31.5861 158.755 30.1953V24.739C158.755 23.3215 158.38 22.2516 157.631 21.5295C156.909 20.8073 155.879 20.4463 154.542 20.4463C153.231 20.4463 152.202 20.8073 151.453 21.5295C150.704 22.2516 150.329 23.3215 150.329 24.739V30.1953C150.329 31.5861 150.704 32.6559 151.453 33.4048C152.202 34.127 153.231 34.4881 154.542 34.4881ZM166.723 38.5V16.4343H171.457V20.6469H172.7L171.216 23.2145C171.216 20.8341 171.751 19.0421 172.821 17.8385C173.891 16.6349 175.469 16.0331 177.555 16.0331C179.935 16.0331 181.808 16.7687 183.172 18.2397C184.536 19.7107 185.218 21.7435 185.218 24.3378V25.9426H179.962V24.6989C179.962 23.2814 179.588 22.1848 178.839 21.4091C178.117 20.6335 177.114 20.2457 175.83 20.2457C174.519 20.2457 173.503 20.6335 172.781 21.4091C172.085 22.1848 171.738 23.2814 171.738 24.6989V38.5H166.723ZM192.183 38.5L184.801 9.21283H190.016L194.429 28.3097C194.67 29.2458 194.898 30.2488 195.112 31.3186C195.325 32.3885 195.486 33.2577 195.593 33.9264C195.7 33.2577 195.847 32.3885 196.034 31.3186C196.221 30.2488 196.422 29.2324 196.636 28.2696L201.009 9.21283H206.064L198.682 38.5H192.183ZM206.931 38.5V9.21283H216.68C218.633 9.21283 220.331 9.58728 221.775 10.3362C223.246 11.0851 224.383 12.1416 225.185 13.5056C225.988 14.8429 226.389 16.421 226.389 18.2397C226.389 20.0317 225.974 21.6097 225.145 22.9738C224.343 24.3378 223.22 25.3943 221.775 26.1432C220.331 26.8921 218.633 27.2666 216.68 27.2666H211.946V38.5H206.931ZM211.946 22.7331H216.68C218.071 22.7331 219.181 22.3319 220.01 21.5295C220.866 20.7004 221.294 19.6038 221.294 18.2397C221.294 16.8489 220.866 15.7523 220.01 14.9499C219.181 14.1475 218.071 13.7463 216.68 13.7463H211.946V22.7331ZM227.176 38.5V9.21283H233.314L241.458 32.8833C241.378 32.0274 241.284 31.0244 241.177 29.8743C241.097 28.6975 241.03 27.5073 240.977 26.3037C240.923 25.0734 240.897 24.0035 240.897 23.0941V9.21283H245.47V38.5H239.332L231.268 14.8296C231.321 15.6052 231.388 16.5413 231.468 17.6379C231.549 18.7345 231.616 19.8578 231.669 21.0079C231.723 22.158 231.749 23.2145 231.749 24.1774V38.5H227.176Z" fill="white"/>
</svg>
